<mxfile host="app.diagrams.net" agent="Mozilla/5.0 (Windows NT 10.0; Win64; x64) AppleWebKit/537.36 (KHTML, like Gecko) Chrome/128.0.0.0 Safari/537.36" version="24.7.16">
  <diagram name="Page-1" id="0783ab3e-0a74-02c8-0abd-f7b4e66b4bec">
    <mxGraphModel dx="1302" dy="670" grid="1" gridSize="10" guides="1" tooltips="1" connect="1" arrows="1" fold="1" page="1" pageScale="1" pageWidth="850" pageHeight="1100" background="none" math="0" shadow="0">
      <root>
        <mxCell id="0" />
        <mxCell id="1" parent="0" />
        <mxCell id="1c1d494c118603dd-1" value="Pool" style="swimlane;html=1;childLayout=stackLayout;startSize=20;rounded=0;shadow=0;comic=0;labelBackgroundColor=none;strokeWidth=1;fontFamily=Verdana;fontSize=12;align=center;" parent="1" vertex="1">
          <mxGeometry x="40" y="20" width="818" height="990" as="geometry" />
        </mxCell>
        <mxCell id="1c1d494c118603dd-2" value="Lane 1" style="swimlane;html=1;startSize=20;" parent="1c1d494c118603dd-1" vertex="1">
          <mxGeometry y="20" width="280" height="970" as="geometry" />
        </mxCell>
        <mxCell id="3b2NY5owH5LKgzEgfbhu-3" style="edgeStyle=orthogonalEdgeStyle;rounded=0;orthogonalLoop=1;jettySize=auto;html=1;exitX=0.75;exitY=1;exitDx=0;exitDy=0;entryX=0.5;entryY=0;entryDx=0;entryDy=0;" edge="1" parent="1c1d494c118603dd-2" source="1c1d494c118603dd-6" target="3b2NY5owH5LKgzEgfbhu-2">
          <mxGeometry relative="1" as="geometry" />
        </mxCell>
        <mxCell id="1c1d494c118603dd-6" value="Profile Morning Selected" style="rounded=1;whiteSpace=wrap;html=1;shadow=0;comic=0;labelBackgroundColor=none;strokeWidth=1;fontFamily=Verdana;fontSize=12;align=center;arcSize=50;" parent="1c1d494c118603dd-2" vertex="1">
          <mxGeometry x="45" y="200" width="170" height="40" as="geometry" />
        </mxCell>
        <mxCell id="1c1d494c118603dd-10" value="Coffee Machine" style="rounded=0;whiteSpace=wrap;html=1;shadow=0;comic=0;labelBackgroundColor=none;strokeWidth=1;fontFamily=Verdana;fontSize=12;align=center;arcSize=50;" parent="1c1d494c118603dd-2" vertex="1">
          <mxGeometry x="10" y="410" width="70" height="30" as="geometry" />
        </mxCell>
        <mxCell id="3b2NY5owH5LKgzEgfbhu-5" style="edgeStyle=orthogonalEdgeStyle;rounded=0;orthogonalLoop=1;jettySize=auto;html=1;exitX=0.25;exitY=1;exitDx=0;exitDy=0;entryX=0.5;entryY=0;entryDx=0;entryDy=0;" edge="1" parent="1c1d494c118603dd-2" source="3b2NY5owH5LKgzEgfbhu-2" target="3b2NY5owH5LKgzEgfbhu-4">
          <mxGeometry relative="1" as="geometry" />
        </mxCell>
        <mxCell id="3b2NY5owH5LKgzEgfbhu-2" value="Waiting for set time" style="rounded=1;whiteSpace=wrap;html=1;shadow=0;comic=0;labelBackgroundColor=none;strokeWidth=1;fontFamily=Verdana;fontSize=12;align=center;arcSize=50;" vertex="1" parent="1c1d494c118603dd-2">
          <mxGeometry x="140" y="260" width="100" height="30" as="geometry" />
        </mxCell>
        <mxCell id="3b2NY5owH5LKgzEgfbhu-6" style="edgeStyle=orthogonalEdgeStyle;rounded=0;orthogonalLoop=1;jettySize=auto;html=1;exitX=0.25;exitY=1;exitDx=0;exitDy=0;entryX=0.75;entryY=0;entryDx=0;entryDy=0;" edge="1" parent="1c1d494c118603dd-2" source="3b2NY5owH5LKgzEgfbhu-4" target="1c1d494c118603dd-10">
          <mxGeometry relative="1" as="geometry">
            <Array as="points">
              <mxPoint x="150" y="380" />
              <mxPoint x="63" y="380" />
            </Array>
          </mxGeometry>
        </mxCell>
        <mxCell id="3b2NY5owH5LKgzEgfbhu-9" style="edgeStyle=orthogonalEdgeStyle;rounded=0;orthogonalLoop=1;jettySize=auto;html=1;entryX=0.5;entryY=0;entryDx=0;entryDy=0;" edge="1" parent="1c1d494c118603dd-2" target="3b2NY5owH5LKgzEgfbhu-7">
          <mxGeometry relative="1" as="geometry">
            <mxPoint x="150" y="370" as="sourcePoint" />
          </mxGeometry>
        </mxCell>
        <mxCell id="3b2NY5owH5LKgzEgfbhu-10" style="edgeStyle=orthogonalEdgeStyle;rounded=0;orthogonalLoop=1;jettySize=auto;html=1;exitX=0.25;exitY=1;exitDx=0;exitDy=0;entryX=0.5;entryY=0;entryDx=0;entryDy=0;" edge="1" parent="1c1d494c118603dd-2" source="3b2NY5owH5LKgzEgfbhu-4" target="3b2NY5owH5LKgzEgfbhu-8">
          <mxGeometry relative="1" as="geometry" />
        </mxCell>
        <mxCell id="3b2NY5owH5LKgzEgfbhu-4" value="Activating Objects in Profile" style="rounded=1;whiteSpace=wrap;html=1;shadow=0;comic=0;labelBackgroundColor=none;strokeWidth=1;fontFamily=Verdana;fontSize=12;align=center;arcSize=50;" vertex="1" parent="1c1d494c118603dd-2">
          <mxGeometry x="120" y="310" width="120" height="40" as="geometry" />
        </mxCell>
        <mxCell id="3b2NY5owH5LKgzEgfbhu-7" value="Heating" style="rounded=0;whiteSpace=wrap;html=1;shadow=0;comic=0;labelBackgroundColor=none;strokeWidth=1;fontFamily=Verdana;fontSize=12;align=center;arcSize=50;" vertex="1" parent="1c1d494c118603dd-2">
          <mxGeometry x="95" y="410" width="70" height="30" as="geometry" />
        </mxCell>
        <mxCell id="3b2NY5owH5LKgzEgfbhu-8" value="Radio" style="rounded=0;whiteSpace=wrap;html=1;shadow=0;comic=0;labelBackgroundColor=none;strokeWidth=1;fontFamily=Verdana;fontSize=12;align=center;arcSize=50;" vertex="1" parent="1c1d494c118603dd-2">
          <mxGeometry x="180" y="410" width="70" height="30" as="geometry" />
        </mxCell>
        <mxCell id="1c1d494c118603dd-30" style="edgeStyle=orthogonalEdgeStyle;rounded=0;html=1;exitX=0.25;exitY=1;entryX=0.5;entryY=0;labelBackgroundColor=none;startArrow=none;startFill=0;startSize=5;endArrow=classicThin;endFill=1;endSize=5;jettySize=auto;orthogonalLoop=1;strokeWidth=1;fontFamily=Verdana;fontSize=12" parent="1c1d494c118603dd-1" source="60571a20871a0731-3" target="1c1d494c118603dd-6" edge="1">
          <mxGeometry relative="1" as="geometry">
            <Array as="points">
              <mxPoint x="317" y="210" />
              <mxPoint x="140" y="210" />
            </Array>
          </mxGeometry>
        </mxCell>
        <mxCell id="1c1d494c118603dd-3" value="Lane 2" style="swimlane;html=1;startSize=20;" parent="1c1d494c118603dd-1" vertex="1">
          <mxGeometry x="280" y="20" width="278" height="970" as="geometry" />
        </mxCell>
        <mxCell id="3b2NY5owH5LKgzEgfbhu-31" style="edgeStyle=orthogonalEdgeStyle;rounded=0;orthogonalLoop=1;jettySize=auto;html=1;exitX=0.5;exitY=1;exitDx=0;exitDy=0;entryX=0.5;entryY=0;entryDx=0;entryDy=0;" edge="1" parent="1c1d494c118603dd-3" source="60571a20871a0731-3" target="3b2NY5owH5LKgzEgfbhu-30">
          <mxGeometry relative="1" as="geometry" />
        </mxCell>
        <mxCell id="60571a20871a0731-3" value="" style="whiteSpace=wrap;html=1;rounded=0;shadow=0;comic=0;labelBackgroundColor=none;strokeWidth=1;fillColor=#000000;fontFamily=Verdana;fontSize=12;align=center;rotation=0;" parent="1c1d494c118603dd-3" vertex="1">
          <mxGeometry x="30" y="160" width="147" height="10" as="geometry" />
        </mxCell>
        <mxCell id="60571a20871a0731-8" value="Input" style="rounded=1;whiteSpace=wrap;html=1;shadow=0;comic=0;labelBackgroundColor=none;strokeWidth=1;fontFamily=Verdana;fontSize=12;align=center;arcSize=50;" parent="1c1d494c118603dd-3" vertex="1">
          <mxGeometry x="53.5" y="110" width="100" height="30" as="geometry" />
        </mxCell>
        <mxCell id="1c1d494c118603dd-28" style="edgeStyle=orthogonalEdgeStyle;rounded=0;html=1;entryX=0.5;entryY=0;labelBackgroundColor=none;startArrow=none;startFill=0;startSize=5;endArrow=classicThin;endFill=1;endSize=5;jettySize=auto;orthogonalLoop=1;strokeWidth=1;fontFamily=Verdana;fontSize=12" parent="1c1d494c118603dd-3" source="60571a20871a0731-8" target="60571a20871a0731-3" edge="1">
          <mxGeometry relative="1" as="geometry">
            <Array as="points">
              <mxPoint x="104" y="125" />
            </Array>
          </mxGeometry>
        </mxCell>
        <mxCell id="60571a20871a0731-4" value="" style="ellipse;whiteSpace=wrap;html=1;rounded=0;shadow=0;comic=0;labelBackgroundColor=none;strokeWidth=1;fillColor=#000000;fontFamily=Verdana;fontSize=12;align=center;" parent="1c1d494c118603dd-3" vertex="1">
          <mxGeometry x="83.5" y="50" width="40" height="40" as="geometry" />
        </mxCell>
        <mxCell id="1c1d494c118603dd-27" style="edgeStyle=orthogonalEdgeStyle;rounded=0;html=1;labelBackgroundColor=none;startArrow=none;startFill=0;startSize=5;endArrow=classicThin;endFill=1;endSize=5;jettySize=auto;orthogonalLoop=1;strokeWidth=1;fontFamily=Verdana;fontSize=12" parent="1c1d494c118603dd-3" source="60571a20871a0731-4" target="60571a20871a0731-8" edge="1">
          <mxGeometry relative="1" as="geometry" />
        </mxCell>
        <mxCell id="3b2NY5owH5LKgzEgfbhu-46" style="edgeStyle=orthogonalEdgeStyle;rounded=0;orthogonalLoop=1;jettySize=auto;html=1;exitX=0.5;exitY=1;exitDx=0;exitDy=0;entryX=0.5;entryY=0;entryDx=0;entryDy=0;" edge="1" parent="1c1d494c118603dd-3" source="3b2NY5owH5LKgzEgfbhu-30" target="3b2NY5owH5LKgzEgfbhu-40">
          <mxGeometry relative="1" as="geometry" />
        </mxCell>
        <mxCell id="3b2NY5owH5LKgzEgfbhu-30" value="Manually controlling Devices by habit" style="rounded=1;whiteSpace=wrap;html=1;shadow=0;comic=0;labelBackgroundColor=none;strokeWidth=1;fontFamily=Verdana;fontSize=12;align=center;arcSize=50;" vertex="1" parent="1c1d494c118603dd-3">
          <mxGeometry x="30" y="210" width="170" height="40" as="geometry" />
        </mxCell>
        <mxCell id="3b2NY5owH5LKgzEgfbhu-72" style="edgeStyle=orthogonalEdgeStyle;rounded=0;orthogonalLoop=1;jettySize=auto;html=1;exitX=0.5;exitY=1;exitDx=0;exitDy=0;entryX=0.5;entryY=0;entryDx=0;entryDy=0;" edge="1" parent="1c1d494c118603dd-3" source="3b2NY5owH5LKgzEgfbhu-33" target="3b2NY5owH5LKgzEgfbhu-41">
          <mxGeometry relative="1" as="geometry" />
        </mxCell>
        <mxCell id="3b2NY5owH5LKgzEgfbhu-33" value="Time Log" style="rounded=1;whiteSpace=wrap;html=1;shadow=0;comic=0;labelBackgroundColor=none;strokeWidth=1;fontFamily=Verdana;fontSize=12;align=center;arcSize=50;" vertex="1" parent="1c1d494c118603dd-3">
          <mxGeometry x="190" y="330" width="80" height="20" as="geometry" />
        </mxCell>
        <mxCell id="3b2NY5owH5LKgzEgfbhu-43" style="edgeStyle=orthogonalEdgeStyle;rounded=0;orthogonalLoop=1;jettySize=auto;html=1;exitX=0.5;exitY=1;exitDx=0;exitDy=0;entryX=0.5;entryY=0;entryDx=0;entryDy=0;" edge="1" parent="1c1d494c118603dd-3" source="3b2NY5owH5LKgzEgfbhu-36" target="3b2NY5owH5LKgzEgfbhu-41">
          <mxGeometry relative="1" as="geometry" />
        </mxCell>
        <mxCell id="3b2NY5owH5LKgzEgfbhu-36" value="Device Action / Log" style="rounded=1;whiteSpace=wrap;html=1;shadow=0;comic=0;labelBackgroundColor=none;strokeWidth=1;fontFamily=Verdana;fontSize=12;align=center;arcSize=50;" vertex="1" parent="1c1d494c118603dd-3">
          <mxGeometry x="110" y="360" width="101.5" height="40" as="geometry" />
        </mxCell>
        <mxCell id="3b2NY5owH5LKgzEgfbhu-47" style="edgeStyle=orthogonalEdgeStyle;rounded=0;orthogonalLoop=1;jettySize=auto;html=1;exitX=0.75;exitY=1;exitDx=0;exitDy=0;entryX=0.5;entryY=0;entryDx=0;entryDy=0;" edge="1" parent="1c1d494c118603dd-3" source="3b2NY5owH5LKgzEgfbhu-40" target="3b2NY5owH5LKgzEgfbhu-36">
          <mxGeometry relative="1" as="geometry" />
        </mxCell>
        <mxCell id="3b2NY5owH5LKgzEgfbhu-52" style="edgeStyle=orthogonalEdgeStyle;rounded=0;orthogonalLoop=1;jettySize=auto;html=1;exitX=0.25;exitY=1;exitDx=0;exitDy=0;entryX=0.5;entryY=0;entryDx=0;entryDy=0;" edge="1" parent="1c1d494c118603dd-3" source="3b2NY5owH5LKgzEgfbhu-40" target="3b2NY5owH5LKgzEgfbhu-51">
          <mxGeometry relative="1" as="geometry" />
        </mxCell>
        <mxCell id="3b2NY5owH5LKgzEgfbhu-73" style="edgeStyle=orthogonalEdgeStyle;rounded=0;orthogonalLoop=1;jettySize=auto;html=1;exitX=1;exitY=0.5;exitDx=0;exitDy=0;entryX=0.5;entryY=0;entryDx=0;entryDy=0;" edge="1" parent="1c1d494c118603dd-3" source="3b2NY5owH5LKgzEgfbhu-40" target="3b2NY5owH5LKgzEgfbhu-33">
          <mxGeometry relative="1" as="geometry" />
        </mxCell>
        <mxCell id="3b2NY5owH5LKgzEgfbhu-40" value="Device Action" style="rounded=1;whiteSpace=wrap;html=1;shadow=0;comic=0;labelBackgroundColor=none;strokeWidth=1;fontFamily=Verdana;fontSize=12;align=center;arcSize=50;" vertex="1" parent="1c1d494c118603dd-3">
          <mxGeometry x="66.75" y="290" width="96.5" height="30" as="geometry" />
        </mxCell>
        <mxCell id="3b2NY5owH5LKgzEgfbhu-66" style="edgeStyle=orthogonalEdgeStyle;rounded=0;orthogonalLoop=1;jettySize=auto;html=1;exitX=0.5;exitY=1;exitDx=0;exitDy=0;entryX=0.5;entryY=0;entryDx=0;entryDy=0;" edge="1" parent="1c1d494c118603dd-3" source="3b2NY5owH5LKgzEgfbhu-41" target="3b2NY5owH5LKgzEgfbhu-65">
          <mxGeometry relative="1" as="geometry" />
        </mxCell>
        <mxCell id="3b2NY5owH5LKgzEgfbhu-41" value="AI Analysis in Cloud" style="rounded=1;whiteSpace=wrap;html=1;shadow=0;comic=0;labelBackgroundColor=none;strokeWidth=1;fontFamily=Verdana;fontSize=12;align=center;arcSize=50;" vertex="1" parent="1c1d494c118603dd-3">
          <mxGeometry x="153.5" y="460" width="96.5" height="30" as="geometry" />
        </mxCell>
        <mxCell id="3b2NY5owH5LKgzEgfbhu-51" value="Device" style="rounded=0;whiteSpace=wrap;html=1;shadow=0;comic=0;labelBackgroundColor=none;strokeWidth=1;fontFamily=Verdana;fontSize=12;align=center;arcSize=50;" vertex="1" parent="1c1d494c118603dd-3">
          <mxGeometry x="35" y="400" width="70" height="30" as="geometry" />
        </mxCell>
        <mxCell id="3b2NY5owH5LKgzEgfbhu-53" value="" style="ellipse;whiteSpace=wrap;html=1;rounded=0;shadow=0;comic=0;labelBackgroundColor=none;strokeWidth=1;fillColor=#000000;fontFamily=Verdana;fontSize=12;align=center;" vertex="1" parent="1c1d494c118603dd-3">
          <mxGeometry x="119" y="720" width="40" height="40" as="geometry" />
        </mxCell>
        <mxCell id="3b2NY5owH5LKgzEgfbhu-81" style="edgeStyle=orthogonalEdgeStyle;rounded=0;orthogonalLoop=1;jettySize=auto;html=1;exitX=0.5;exitY=1;exitDx=0;exitDy=0;entryX=0.5;entryY=0;entryDx=0;entryDy=0;" edge="1" parent="1c1d494c118603dd-3" source="3b2NY5owH5LKgzEgfbhu-65" target="3b2NY5owH5LKgzEgfbhu-74">
          <mxGeometry relative="1" as="geometry" />
        </mxCell>
        <mxCell id="3b2NY5owH5LKgzEgfbhu-65" value="Profile and Automated Task creation / suggestion" style="rounded=1;whiteSpace=wrap;html=1;shadow=0;comic=0;labelBackgroundColor=none;strokeWidth=1;fontFamily=Verdana;fontSize=12;align=center;arcSize=50;" vertex="1" parent="1c1d494c118603dd-3">
          <mxGeometry x="110" y="510" width="160" height="50" as="geometry" />
        </mxCell>
        <mxCell id="3b2NY5owH5LKgzEgfbhu-68" value="User Satisfaction" style="rounded=1;whiteSpace=wrap;html=1;shadow=0;comic=0;labelBackgroundColor=none;strokeWidth=1;fontFamily=Verdana;fontSize=12;align=center;arcSize=50;" vertex="1" parent="1c1d494c118603dd-3">
          <mxGeometry x="80" y="770" width="120" height="40" as="geometry" />
        </mxCell>
        <mxCell id="3b2NY5owH5LKgzEgfbhu-76" style="edgeStyle=orthogonalEdgeStyle;rounded=0;orthogonalLoop=1;jettySize=auto;html=1;exitX=0.5;exitY=1;exitDx=0;exitDy=0;entryX=0.5;entryY=0;entryDx=0;entryDy=0;" edge="1" parent="1c1d494c118603dd-3" source="3b2NY5owH5LKgzEgfbhu-74" target="3b2NY5owH5LKgzEgfbhu-53">
          <mxGeometry relative="1" as="geometry" />
        </mxCell>
        <mxCell id="3b2NY5owH5LKgzEgfbhu-74" value="&lt;font color=&quot;#ffffff&quot;&gt;Result&lt;/font&gt;" style="whiteSpace=wrap;html=1;rounded=0;shadow=0;comic=0;labelBackgroundColor=none;strokeWidth=1;fillColor=#000000;fontFamily=Verdana;fontSize=12;align=center;rotation=0;" vertex="1" parent="1c1d494c118603dd-3">
          <mxGeometry x="65.5" y="690" width="147" height="10" as="geometry" />
        </mxCell>
        <mxCell id="3b2NY5owH5LKgzEgfbhu-80" style="edgeStyle=orthogonalEdgeStyle;rounded=0;orthogonalLoop=1;jettySize=auto;html=1;exitX=0.5;exitY=1;exitDx=0;exitDy=0;entryX=0.034;entryY=-0.248;entryDx=0;entryDy=0;entryPerimeter=0;" edge="1" parent="1c1d494c118603dd-3" source="3b2NY5owH5LKgzEgfbhu-51" target="3b2NY5owH5LKgzEgfbhu-74">
          <mxGeometry relative="1" as="geometry" />
        </mxCell>
        <mxCell id="1c1d494c118603dd-4" value="Lane 3" style="swimlane;html=1;startSize=20;" parent="1c1d494c118603dd-1" vertex="1">
          <mxGeometry x="558" y="20" width="260" height="970" as="geometry" />
        </mxCell>
        <mxCell id="3b2NY5owH5LKgzEgfbhu-26" style="edgeStyle=orthogonalEdgeStyle;rounded=0;orthogonalLoop=1;jettySize=auto;html=1;exitX=0.5;exitY=1;exitDx=0;exitDy=0;entryX=0.5;entryY=0;entryDx=0;entryDy=0;" edge="1" parent="1c1d494c118603dd-4" source="1c1d494c118603dd-5" target="3b2NY5owH5LKgzEgfbhu-19">
          <mxGeometry relative="1" as="geometry" />
        </mxCell>
        <mxCell id="1c1d494c118603dd-5" value="Profile Evening Selected" style="rounded=1;whiteSpace=wrap;html=1;shadow=0;comic=0;labelBackgroundColor=none;strokeWidth=1;fontFamily=Verdana;fontSize=12;align=center;arcSize=50;" parent="1c1d494c118603dd-4" vertex="1">
          <mxGeometry x="45" y="200" width="175" height="38" as="geometry" />
        </mxCell>
        <mxCell id="3b2NY5owH5LKgzEgfbhu-14" value="TV" style="rounded=0;whiteSpace=wrap;html=1;shadow=0;comic=0;labelBackgroundColor=none;strokeWidth=1;fontFamily=Verdana;fontSize=12;align=center;arcSize=50;" vertex="1" parent="1c1d494c118603dd-4">
          <mxGeometry x="10" y="420" width="70" height="30" as="geometry" />
        </mxCell>
        <mxCell id="3b2NY5owH5LKgzEgfbhu-17" value="Note" style="shape=note;whiteSpace=wrap;html=1;rounded=0;shadow=0;comic=0;labelBackgroundColor=none;strokeWidth=1;fontFamily=Verdana;fontSize=12;align=center;size=20;" vertex="1" parent="1c1d494c118603dd-4">
          <mxGeometry x="20" y="270" width="85" height="42" as="geometry" />
        </mxCell>
        <mxCell id="3b2NY5owH5LKgzEgfbhu-18" style="edgeStyle=orthogonalEdgeStyle;rounded=0;orthogonalLoop=1;jettySize=auto;html=1;exitX=0.25;exitY=1;exitDx=0;exitDy=0;entryX=0.5;entryY=0;entryDx=0;entryDy=0;" edge="1" parent="1c1d494c118603dd-4" source="3b2NY5owH5LKgzEgfbhu-19" target="3b2NY5owH5LKgzEgfbhu-23">
          <mxGeometry relative="1" as="geometry" />
        </mxCell>
        <mxCell id="3b2NY5owH5LKgzEgfbhu-19" value="Waiting for set time" style="rounded=1;whiteSpace=wrap;html=1;shadow=0;comic=0;labelBackgroundColor=none;strokeWidth=1;fontFamily=Verdana;fontSize=12;align=center;arcSize=50;" vertex="1" parent="1c1d494c118603dd-4">
          <mxGeometry x="150" y="270" width="100" height="30" as="geometry" />
        </mxCell>
        <mxCell id="3b2NY5owH5LKgzEgfbhu-20" style="edgeStyle=orthogonalEdgeStyle;rounded=0;orthogonalLoop=1;jettySize=auto;html=1;exitX=0.25;exitY=1;exitDx=0;exitDy=0;entryX=0.75;entryY=0;entryDx=0;entryDy=0;" edge="1" parent="1c1d494c118603dd-4" source="3b2NY5owH5LKgzEgfbhu-23" target="3b2NY5owH5LKgzEgfbhu-14">
          <mxGeometry relative="1" as="geometry">
            <Array as="points">
              <mxPoint x="160" y="390" />
              <mxPoint x="73" y="390" />
            </Array>
          </mxGeometry>
        </mxCell>
        <mxCell id="3b2NY5owH5LKgzEgfbhu-21" style="edgeStyle=orthogonalEdgeStyle;rounded=0;orthogonalLoop=1;jettySize=auto;html=1;entryX=0.5;entryY=0;entryDx=0;entryDy=0;" edge="1" parent="1c1d494c118603dd-4" target="3b2NY5owH5LKgzEgfbhu-24">
          <mxGeometry relative="1" as="geometry">
            <mxPoint x="160" y="380" as="sourcePoint" />
          </mxGeometry>
        </mxCell>
        <mxCell id="3b2NY5owH5LKgzEgfbhu-22" style="edgeStyle=orthogonalEdgeStyle;rounded=0;orthogonalLoop=1;jettySize=auto;html=1;exitX=0.25;exitY=1;exitDx=0;exitDy=0;entryX=0.5;entryY=0;entryDx=0;entryDy=0;" edge="1" parent="1c1d494c118603dd-4" source="3b2NY5owH5LKgzEgfbhu-23">
          <mxGeometry relative="1" as="geometry">
            <mxPoint x="225" y="420" as="targetPoint" />
          </mxGeometry>
        </mxCell>
        <mxCell id="3b2NY5owH5LKgzEgfbhu-23" value="Activating Objects in Profile" style="rounded=1;whiteSpace=wrap;html=1;shadow=0;comic=0;labelBackgroundColor=none;strokeWidth=1;fontFamily=Verdana;fontSize=12;align=center;arcSize=50;" vertex="1" parent="1c1d494c118603dd-4">
          <mxGeometry x="130" y="320" width="120" height="40" as="geometry" />
        </mxCell>
        <mxCell id="3b2NY5owH5LKgzEgfbhu-24" value="Heating" style="rounded=0;whiteSpace=wrap;html=1;shadow=0;comic=0;labelBackgroundColor=none;strokeWidth=1;fontFamily=Verdana;fontSize=12;align=center;arcSize=50;" vertex="1" parent="1c1d494c118603dd-4">
          <mxGeometry x="95" y="420" width="70" height="30" as="geometry" />
        </mxCell>
        <mxCell id="3b2NY5owH5LKgzEgfbhu-28" value="Juice Machine" style="rounded=0;whiteSpace=wrap;html=1;shadow=0;comic=0;labelBackgroundColor=none;strokeWidth=1;fontFamily=Verdana;fontSize=12;align=center;arcSize=50;" vertex="1" parent="1c1d494c118603dd-4">
          <mxGeometry x="180" y="420" width="70" height="30" as="geometry" />
        </mxCell>
        <mxCell id="3b2NY5owH5LKgzEgfbhu-29" style="edgeStyle=orthogonalEdgeStyle;rounded=0;orthogonalLoop=1;jettySize=auto;html=1;exitX=0.75;exitY=1;exitDx=0;exitDy=0;entryX=0.5;entryY=0;entryDx=0;entryDy=0;" edge="1" parent="1c1d494c118603dd-1" source="60571a20871a0731-3" target="1c1d494c118603dd-5">
          <mxGeometry relative="1" as="geometry" />
        </mxCell>
        <mxCell id="3b2NY5owH5LKgzEgfbhu-77" style="edgeStyle=orthogonalEdgeStyle;rounded=0;orthogonalLoop=1;jettySize=auto;html=1;exitX=0.5;exitY=1;exitDx=0;exitDy=0;entryX=0;entryY=0.75;entryDx=0;entryDy=0;" edge="1" parent="1c1d494c118603dd-1" source="1c1d494c118603dd-10" target="3b2NY5owH5LKgzEgfbhu-74">
          <mxGeometry relative="1" as="geometry" />
        </mxCell>
        <mxCell id="3b2NY5owH5LKgzEgfbhu-78" style="edgeStyle=orthogonalEdgeStyle;rounded=0;orthogonalLoop=1;jettySize=auto;html=1;exitX=0.5;exitY=1;exitDx=0;exitDy=0;entryX=0;entryY=0.5;entryDx=0;entryDy=0;" edge="1" parent="1c1d494c118603dd-1" source="3b2NY5owH5LKgzEgfbhu-7" target="3b2NY5owH5LKgzEgfbhu-74">
          <mxGeometry relative="1" as="geometry" />
        </mxCell>
        <mxCell id="3b2NY5owH5LKgzEgfbhu-79" style="edgeStyle=orthogonalEdgeStyle;rounded=0;orthogonalLoop=1;jettySize=auto;html=1;exitX=0.5;exitY=1;exitDx=0;exitDy=0;entryX=0;entryY=0.75;entryDx=0;entryDy=0;" edge="1" parent="1c1d494c118603dd-1" source="3b2NY5owH5LKgzEgfbhu-8" target="3b2NY5owH5LKgzEgfbhu-74">
          <mxGeometry relative="1" as="geometry" />
        </mxCell>
        <mxCell id="3b2NY5owH5LKgzEgfbhu-82" style="edgeStyle=orthogonalEdgeStyle;rounded=0;orthogonalLoop=1;jettySize=auto;html=1;exitX=0.5;exitY=1;exitDx=0;exitDy=0;entryX=1;entryY=0.5;entryDx=0;entryDy=0;" edge="1" parent="1c1d494c118603dd-1" source="3b2NY5owH5LKgzEgfbhu-14" target="3b2NY5owH5LKgzEgfbhu-74">
          <mxGeometry relative="1" as="geometry" />
        </mxCell>
        <mxCell id="3b2NY5owH5LKgzEgfbhu-83" style="edgeStyle=orthogonalEdgeStyle;rounded=0;orthogonalLoop=1;jettySize=auto;html=1;exitX=0.5;exitY=1;exitDx=0;exitDy=0;entryX=1;entryY=0.5;entryDx=0;entryDy=0;" edge="1" parent="1c1d494c118603dd-1" source="3b2NY5owH5LKgzEgfbhu-24" target="3b2NY5owH5LKgzEgfbhu-74">
          <mxGeometry relative="1" as="geometry" />
        </mxCell>
        <mxCell id="3b2NY5owH5LKgzEgfbhu-84" style="edgeStyle=orthogonalEdgeStyle;rounded=0;orthogonalLoop=1;jettySize=auto;html=1;exitX=0.5;exitY=1;exitDx=0;exitDy=0;entryX=1;entryY=0.5;entryDx=0;entryDy=0;" edge="1" parent="1c1d494c118603dd-1" source="3b2NY5owH5LKgzEgfbhu-28" target="3b2NY5owH5LKgzEgfbhu-74">
          <mxGeometry relative="1" as="geometry" />
        </mxCell>
      </root>
    </mxGraphModel>
  </diagram>
</mxfile>
